HIERARCHY
ROOT hip
{
  OFFSET -0.955035 80.0965 30.4819
  CHANNELS 6 Xposition Yposition Zposition Zrotation Xrotation Yrotation
  JOINT abdomen
  {
    OFFSET 0 20.6881 -0.73152
    CHANNELS 3 Zrotation Xrotation Yrotation
    JOINT chest
    {
      OFFSET 0 11.7043 -0.48768
      CHANNELS 3 Zrotation Xrotation Yrotation
      JOINT neck
      {
        OFFSET 0 22.1894 -2.19456
        CHANNELS 3 Zrotation Xrotation Yrotation
        JOINT head
        {
          OFFSET -0.24384 7.07133 1.2192
          CHANNELS 3 Zrotation Xrotation Yrotation
          JOINT leftEye
          {
            OFFSET 4.14528 8.04674 8.04672
            CHANNELS 3 Zrotation Xrotation Yrotation
            End Site
            {
              OFFSET 1 0 0
            }
          }
          JOINT rightEye
          {
            OFFSET -3.6576 8.04674 8.04672
            CHANNELS 3 Zrotation Xrotation Yrotation
            End Site
            {
              OFFSET 1 0 0
            }
          }
        }
      }
      JOINT rCollar
      {
        OFFSET -2.68224 19.2634 -4.8768
        CHANNELS 3 Zrotation Xrotation Yrotation
        JOINT rShldr
        {
          OFFSET -8.77824 -1.95073 1.46304
          CHANNELS 3 Zrotation Xrotation Yrotation
          JOINT rForeArm
          {
            OFFSET -28.1742 -1.7115 0.48768
            CHANNELS 3 Zrotation Xrotation Yrotation
            JOINT rHand
            {
              OFFSET -22.5879 0.773209 7.07136
              CHANNELS 3 Zrotation Xrotation Yrotation
              JOINT rThumb1
              {
                OFFSET -1.2192 -0.487915 3.41376
                CHANNELS 3 Zrotation Xrotation Yrotation
                JOINT rThumb2
                {
                  OFFSET -3.37035 -0.52449 3.41376
                  CHANNELS 3 Zrotation Xrotation Yrotation
                  End Site
                  {
                    OFFSET -1.78271 -1.18214 1.43049
                  }
                }
              }
              JOINT rIndex1
              {
                OFFSET -7.75947 0.938293 5.60832
                CHANNELS 3 Zrotation Xrotation Yrotation
                JOINT rIndex2
                {
                  OFFSET -2.54057 -0.884171 1.56538
                  CHANNELS 3 Zrotation Xrotation Yrotation
                  End Site
                  {
                    OFFSET -1.62519 -0.234802 1.16502
                  }
                }
              }
              JOINT rMid1
              {
                OFFSET -8.24714 1.18213 3.41376
                CHANNELS 3 Zrotation Xrotation Yrotation
                JOINT rMid2
                {
                  OFFSET -3.10165 -0.590103 1.0647
                  CHANNELS 3 Zrotation Xrotation Yrotation
                  End Site
                  {
                    OFFSET -2.48547 -0.328903 0.83742
                  }
                }
              }
              JOINT rRing1
              {
                OFFSET -8.82822 0.546677 1.51678
                CHANNELS 3 Zrotation Xrotation Yrotation
                JOINT rRing2
                {
                  OFFSET -2.60934 -0.819778 -0.0198488
                  CHANNELS 3 Zrotation Xrotation Yrotation
                  End Site
                  {
                    OFFSET -2.33842 -0.294052 0.168128
                  }
                }
              }
              JOINT rPinky1
              {
                OFFSET -8.27202 -0.0477905 -0.4584
                CHANNELS 3 Zrotation Xrotation Yrotation
                JOINT rPinky2
                {
                  OFFSET -1.82734 -0.647385 -0.700984
                  CHANNELS 3 Zrotation Xrotation Yrotation
                  End Site
                  {
                    OFFSET -1.69225 -0.51767 -0.607171
                  }
                }
              }
            }
          }
        }
      }
      JOINT lCollar
      {
        OFFSET 2.68224 19.2634 -4.8768
        CHANNELS 3 Zrotation Xrotation Yrotation
        JOINT lShldr
        {
          OFFSET 8.77824 -1.95073 1.46304
          CHANNELS 3 Zrotation Xrotation Yrotation
          JOINT lForeArm
          {
            OFFSET 28.1742 -1.7115 0.48768
            CHANNELS 3 Zrotation Xrotation Yrotation
            JOINT lHand
            {
              OFFSET 22.5879 0.773209 7.07136
              CHANNELS 3 Zrotation Xrotation Yrotation
              JOINT lThumb1
              {
                OFFSET 1.2192 -0.487915 3.41376
                CHANNELS 3 Zrotation Xrotation Yrotation
                JOINT lThumb2
                {
                  OFFSET 3.37035 -0.52449 3.41376
                  CHANNELS 3 Zrotation Xrotation Yrotation
                  End Site
                  {
                    OFFSET 1.78271 -1.18214 1.43049
                  }
                }
              }
              JOINT lIndex1
              {
                OFFSET 7.75947 0.938293 5.60832
                CHANNELS 3 Zrotation Xrotation Yrotation
                JOINT lIndex2
                {
                  OFFSET 2.54057 -0.884171 1.56538
                  CHANNELS 3 Zrotation Xrotation Yrotation
                  End Site
                  {
                    OFFSET 1.62519 -0.234802 1.16502
                  }
                }
              }
              JOINT lMid1
              {
                OFFSET 8.24714 1.18213 3.41376
                CHANNELS 3 Zrotation Xrotation Yrotation
                JOINT lMid2
                {
                  OFFSET 3.10165 -0.590103 1.0647
                  CHANNELS 3 Zrotation Xrotation Yrotation
                  End Site
                  {
                    OFFSET 2.48547 -0.328903 0.83742
                  }
                }
              }
              JOINT lRing1
              {
                OFFSET 8.82822 0.546677 1.51678
                CHANNELS 3 Zrotation Xrotation Yrotation
                JOINT lRing2
                {
                  OFFSET 2.60934 -0.819778 -0.0198488
                  CHANNELS 3 Zrotation Xrotation Yrotation
                  End Site
                  {
                    OFFSET 2.33842 -0.294052 0.168128
                  }
                }
              }
              JOINT lPinky1
              {
                OFFSET 8.27202 -0.0477905 -0.4584
                CHANNELS 3 Zrotation Xrotation Yrotation
                JOINT lPinky2
                {
                  OFFSET 1.82734 -0.647385 -0.700984
                  CHANNELS 3 Zrotation Xrotation Yrotation
                  End Site
                  {
                    OFFSET 1.69225 -0.51767 -0.607171
                  }
                }
              }
            }
          }
        }
      }
    }
  }
  JOINT rButtock
  {
    OFFSET -8.77824 4.35084 1.2192
    CHANNELS 3 Zrotation Xrotation Yrotation
    JOINT rThigh
    {
      OFFSET 0 -1.70687 -2.19456
      CHANNELS 3 Zrotation Xrotation Yrotation
      JOINT rShin
      {
        OFFSET 0 -36.8199 0.73152
        CHANNELS 3 Zrotation Xrotation Yrotation
        JOINT rFoot
        {
          OFFSET 0.73152 -45.1104 -5.12064
          CHANNELS 3 Zrotation Xrotation Yrotation
          End Site
          {
            OFFSET -1.1221 -3.69964 12.103
          }
        }
      }
    }
  }
  JOINT lButtock
  {
    OFFSET 8.77824 4.35084 1.2192
    CHANNELS 3 Zrotation Xrotation Yrotation
    JOINT lThigh
    {
      OFFSET 0 -1.70687 -2.19456
      CHANNELS 3 Zrotation Xrotation Yrotation
      JOINT lShin
      {
        OFFSET 0 -36.8199 0.73152
        CHANNELS 3 Zrotation Xrotation Yrotation
        JOINT lFoot
        {
          OFFSET -0.73152 -45.1104 -5.12064
          CHANNELS 3 Zrotation Xrotation Yrotation
          End Site
          {
            OFFSET 1.1221 -3.69964 12.103
          }
        }
      }
    }
  }
}
MOTION
Frames:	4
Frame Time:	0.00833333
36.5244 87.239 -63.668 1.5518 3.11478 -1.827 -0.908534 8.86346 0.00215297 2.79427 5.43936 -0.110759 -5.86896 3.34191 -3.54012 0.00128497 15.7892 -5.61047 -0 0 0 -0 0 0 3.22244e-014 5.46678e-014 -8.21447e-014 -14.353 -20.8922 -53.5672 -12.4066 -5.72417 22.4206 -0.120962 -5.36554 -0.74377 2.82409e-010 1.17746e-009 -1.05974e-011 4.85041e-010 2.03075e-009 -2.05607e-011 2.82412e-010 1.17746e-009 -1.06087e-011 7.73091 5.47488 0.417314 2.82408e-010 1.17746e-009 -1.0596e-011 2.90554 0.965183 0.102902 2.82411e-010 1.17746e-009 -1.05951e-011 10.2786 0.731801 0.0259123 2.824e-010 1.17746e-009 -1.05893e-011 2.22167 -0.733487 -0.20892 3.23827e-014 5.46652e-014 -8.239e-014 0.840329 -14.2415 49.2676 -12.8196 -6.01351 23.251 3.66726 -46.0398 8.44098 3.22376e-010 3.58829e-010 4.99734e-010 5.39326e-010 6.55997e-010 8.73119e-010 3.2237e-010 3.58836e-010 4.99751e-010 -7.73091 5.47488 -0.417314 3.2238e-010 3.58833e-010 4.99737e-010 -2.90554 0.965183 -0.102902 3.22371e-010 3.58831e-010 4.99738e-010 -10.2786 0.731801 -0.0259123 3.22385e-010 3.58833e-010 4.99736e-010 -2.22167 -0.733487 0.20892 -2.03217e-016 0 -3.88251e-019 5.01076 -24.1861 3.92677 -0.355991 41.8906 0.661382 -1.7989 -0.827044 -12.4779 2.03217e-016 0 3.88251e-019 0.381874 -22.6661 -8.30992 0.370528 40.0636 -0.580994 0.75086 7.5216 -3.71682 
36.4814 87.3627 -63.9332 1.46894 2.89412 -1.57691 -0.925328 8.93624 0.0566804 2.71669 5.57271 -0.0933512 -5.91571 3.72512 -3.65739 0.750416 15.0545 -5.95451 -0 0 0 -0 0 0 2.66711e-014 -4.38296e-014 -6.18302e-014 -22.613 -19.7449 -51.1397 -12.6126 -5.8817 22.8112 -0.065851 -5.25846 -0.73641 -2.14865e-010 -9.76361e-010 7.082e-010 -3.71477e-010 -1.69168e-009 1.22332e-009 -2.14862e-010 -9.76361e-010 7.08188e-010 7.73091 5.47488 0.417314 -2.14865e-010 -9.76363e-010 7.08202e-010 2.90554 0.965183 0.102902 -2.14863e-010 -9.76364e-010 7.08201e-010 10.2786 0.731801 0.0259123 -2.14874e-010 -9.7636e-010 7.08209e-010 2.22167 -0.733487 -0.20892 2.67913e-014 -4.38333e-014 -6.20068e-014 8.92038 -11.5232 46.9085 -13.0239 -6.17932 23.6337 3.44668 -45.2884 8.18372 4.15677e-011 7.00826e-011 -2.43544e-010 7.51089e-011 1.40055e-010 -4.17233e-010 4.15568e-011 7.00867e-011 -2.43527e-010 -7.73091 5.47488 -0.417314 4.15683e-011 7.00829e-011 -2.43545e-010 -2.90554 0.965183 -0.102902 4.15616e-011 7.00818e-011 -2.43542e-010 -10.2786 0.731801 -0.0259123 4.15771e-011 7.00853e-011 -2.43545e-010 -2.22167 -0.733487 0.20892 -2.03217e-016 0 -3.88251e-019 5.44779 -23.8011 4.89925 -0.355857 41.9377 0.663113 -1.87006 -1.11004 -12.548 2.03217e-016 0 3.88251e-019 0.682616 -22.3669 -7.76402 0.372166 40.173 -0.585635 0.754071 7.31743 -4.11025 
36.4514 87.2449 -64.196 1.38475 2.59628 -1.36108 -0.969174 8.77962 -0.206908 3.05677 5.55839 -0.176584 -6.12122 4.40581 -3.62292 0.984052 14.5801 -5.96488 -0 0 0 -0 0 0 2.24251e-014 -1.01774e-013 -4.24405e-014 -30.9207 -20.6046 -47.202 -12.8541 -6.06586 23.2755 -0.0337774 -5.23867 -0.738326 -4.50564e-010 -2.27904e-009 1.09417e-009 -7.76868e-010 -3.94299e-009 1.8914e-009 -4.50561e-010 -2.27904e-009 1.09416e-009 7.73091 5.47488 0.417314 -4.50565e-010 -2.27905e-009 1.09418e-009 2.90554 0.965183 0.102902 -4.50564e-010 -2.27905e-009 1.09417e-009 10.2786 0.731801 0.0259123 -4.50574e-010 -2.27904e-009 1.09418e-009 2.22167 -0.733487 -0.20892 2.25018e-014 -1.0178e-013 -4.25896e-014 16.4263 -9.82393 43.7982 -13.3326 -6.42824 24.2205 3.2983 -44.7352 8.00431 -1.40865e-010 -1.2554e-010 -6.68133e-010 -2.28033e-010 -2.09834e-010 -1.15507e-009 -1.40879e-010 -1.25538e-010 -6.68117e-010 -7.73091 5.47488 -0.417314 -1.40867e-010 -1.25542e-010 -6.68136e-010 -2.90554 0.965183 -0.102902 -1.40872e-010 -1.25543e-010 -6.68132e-010 -10.2786 0.731801 -0.0259123 -1.40856e-010 -1.25538e-010 -6.68136e-010 -2.22167 -0.733487 0.20892 -2.03217e-016 0 -3.88251e-019 5.67787 -23.3419 5.45038 -0.356014 41.9797 0.664957 -1.92023 -1.42995 -12.3177 2.03217e-016 0 3.88251e-019 0.873267 -21.9224 -7.44657 0.372707 40.2255 -0.589334 0.723535 6.82235 -4.23559 
36.4386 86.923 -64.4266 1.28424 2.19759 -1.1934 -1.06954 8.24933 -0.916495 4.00974 5.30652 -0.401108 -6.51011 5.64488 -3.37115 0.467435 14.4166 -5.51694 -0 0 0 -0 0 0 2.18619e-014 -9.60452e-014 -2.20601e-014 -39.0287 -24.479 -41.059 -13.1179 -6.26155 23.8011 -0.035617 -5.24625 -0.739553 -2.63117e-010 -2.32556e-009 9.70321e-010 -4.52232e-010 -4.02313e-009 1.67741e-009 -2.63111e-010 -2.32557e-009 9.70308e-010 7.73091 5.47488 0.417314 -2.63118e-010 -2.32557e-009 9.70325e-010 2.90554 0.965183 0.102902 -2.63116e-010 -2.32557e-009 9.70321e-010 10.2786 0.731801 0.0259123 -2.63127e-010 -2.32556e-009 9.7033e-010 2.22167 -0.733487 -0.20892 2.18784e-014 -9.60547e-014 -2.2248e-014 23.2286 -9.31287 39.6669 -13.7445 -6.74887 25.0461 3.23677 -44.4263 7.91729 -1.92326e-010 -1.95228e-010 -6.00065e-010 -3.1866e-010 -3.34154e-010 -1.03947e-009 -1.92339e-010 -1.95227e-010 -6.0005e-010 -7.73091 5.47488 -0.417314 -1.92329e-010 -1.95231e-010 -6.00069e-010 -2.90554 0.965183 -0.102902 -1.92334e-010 -1.95232e-010 -6.00065e-010 -10.2786 0.731801 -0.0259123 -1.92318e-010 -1.95226e-010 -6.0007e-010 -2.22167 -0.733487 0.20892 -2.03217e-016 0 -3.88251e-019 5.63013 -22.7443 5.41134 -0.355462 41.9461 0.663331 -1.88338 -1.54237 -11.6932 2.03217e-016 0 3.88251e-019 0.884949 -21.2556 -7.49703 0.371411 40.1688 -0.589516 0.67055 6.12787 -4.04394 
